<svg width="35" height="34" viewBox="0 0 35 34" fill="none" xmlns="http://www.w3.org/2000/svg">
<path d="M20.2344 22.6729H5.46875" stroke="#FD9840" stroke-width="2" stroke-linecap="round" stroke-linejoin="round"/>
<path d="M29.5312 22.6729H25.7031" stroke="#FD9840" stroke-width="2" stroke-linecap="round" stroke-linejoin="round"/>
<path d="M22.9688 25.2962C24.4789 25.2962 25.7031 24.1218 25.7031 22.673C25.7031 21.2243 24.4789 20.0498 22.9688 20.0498C21.4586 20.0498 20.2344 21.2243 20.2344 22.673C20.2344 24.1218 21.4586 25.2962 22.9688 25.2962Z" stroke="#FD9840" stroke-width="2" stroke-linecap="round" stroke-linejoin="round"/>
<path d="M11.4844 11.1309H5.46875" stroke="#FD9840" stroke-width="2" stroke-linecap="round" stroke-linejoin="round"/>
<path d="M29.5312 11.1309H16.9531" stroke="#FD9840" stroke-width="2" stroke-linecap="round" stroke-linejoin="round"/>
<path d="M14.2188 13.7542C15.7289 13.7542 16.9531 12.5798 16.9531 11.131C16.9531 9.68227 15.7289 8.50781 14.2188 8.50781C12.7086 8.50781 11.4844 9.68227 11.4844 11.131C11.4844 12.5798 12.7086 13.7542 14.2188 13.7542Z" stroke="#FD9840" stroke-width="2" stroke-linecap="round" stroke-linejoin="round"/>
</svg>
