<svg width="20" height="20" viewBox="0 0 20 20" fill="none" xmlns="http://www.w3.org/2000/svg">
<path d="M10 13.1249C11.7259 13.1249 13.125 11.7258 13.125 9.99994C13.125 8.27405 11.7259 6.87494 10 6.87494C8.27411 6.87494 6.875 8.27405 6.875 9.99994C6.875 11.7258 8.27411 13.1249 10 13.1249Z" stroke="#828282" stroke-width="1.5" stroke-linecap="round" stroke-linejoin="round"/>
<path d="M14.1484 16.2501C12.7563 17.1743 11.0954 17.6072 9.42927 17.4801C7.76311 17.3529 6.18713 16.673 4.95141 15.5482C3.71569 14.4233 2.891 12.918 2.6082 11.2711C2.3254 9.62423 2.60069 7.93005 3.39039 6.45742C4.18008 4.98479 5.43895 3.81806 6.96725 3.14236C8.49554 2.46666 10.2057 2.32069 11.8264 2.72762C13.4471 3.13455 14.8855 4.07106 15.9134 5.38855C16.9412 6.70605 17.4996 8.32907 17.5 10.0001C17.5 11.7266 16.875 13.1251 15.3125 13.1251C13.75 13.1251 13.125 11.7266 13.125 10.0001V6.87507" stroke="#828282" stroke-width="1.5" stroke-linecap="round" stroke-linejoin="round"/>
</svg>
