<svg width="20" height="20" viewBox="0 0 20 20" fill="none" xmlns="http://www.w3.org/2000/svg">
<path d="M10 10.625C11.3807 10.625 12.5 9.50571 12.5 8.125C12.5 6.74429 11.3807 5.625 10 5.625C8.61929 5.625 7.5 6.74429 7.5 8.125C7.5 9.50571 8.61929 10.625 10 10.625Z" stroke="#828282" stroke-width="1.5" stroke-linecap="round" stroke-linejoin="round"/>
<path d="M16.25 8.12506C16.25 13.7501 10 18.1251 10 18.1251C10 18.1251 3.75 13.7501 3.75 8.12506C3.75 6.46746 4.40848 4.87775 5.58058 3.70564C6.75269 2.53354 8.3424 1.87506 10 1.87506C11.6576 1.87506 13.2473 2.53354 14.4194 3.70564C15.5915 4.87775 16.25 6.46746 16.25 8.12506V8.12506Z" stroke="#828282" stroke-width="1.5" stroke-linecap="round" stroke-linejoin="round"/>
</svg>
