<svg width="17" height="22" viewBox="0 0 17 22" fill="none" xmlns="http://www.w3.org/2000/svg">
<path d="M10.5852 3.30078C11.4863 3.6013 12.3079 4.19107 12.9676 5.01088C13.6273 5.8307 14.1019 6.85173 14.3437 7.9715" stroke="#0C6696" stroke-linecap="round" stroke-linejoin="round"/>
<path d="M10.0339 5.85083C10.5759 6.02975 11.0702 6.38357 11.4667 6.87644C11.8632 7.36932 12.1478 7.98373 12.2917 8.6574" stroke="#0C6696" stroke-linecap="round" stroke-linejoin="round"/>
<path d="M6.14256 10.2987C6.68923 11.7016 7.60209 12.8331 8.7324 13.5088C8.81577 13.5579 8.90799 13.5791 8.99998 13.5704C9.09196 13.5617 9.18054 13.5234 9.257 13.4593L10.9172 12.0812C10.9905 12.0194 11.0753 11.9817 11.1635 11.9716C11.2518 11.9615 11.3406 11.9793 11.4218 12.0234L14.5296 13.6821C14.6359 13.737 14.7246 13.8338 14.7822 13.9576C14.8398 14.0814 14.863 14.2252 14.8484 14.367C14.7499 15.3224 14.3746 16.2005 13.7928 16.8369C13.211 17.4733 12.4626 17.8245 11.6875 17.8247C9.29223 17.8247 6.99511 16.6423 5.30143 14.5376C3.60775 12.4329 2.65625 9.57828 2.65625 6.60178C2.65642 5.63859 2.93902 4.70848 3.45115 3.98549C3.96328 3.2625 4.66985 2.79618 5.43866 2.67377C5.55277 2.65556 5.66854 2.68446 5.76813 2.75603C5.86772 2.82761 5.94562 2.93788 5.98983 3.06987L7.32459 6.94012C7.3593 7.03943 7.37382 7.14783 7.36687 7.25576C7.35992 7.36369 7.33172 7.46784 7.28475 7.55903L6.17577 9.65507C6.12639 9.74987 6.09742 9.85883 6.0916 9.97152C6.08579 10.0842 6.10334 10.1969 6.14256 10.2987V10.2987Z" stroke="#0C6696" stroke-linecap="round" stroke-linejoin="round"/>
</svg>
