<svg width="26" height="25" viewBox="0 0 26 25" fill="none" xmlns="http://www.w3.org/2000/svg">
<path d="M22.2933 11.8064L5.79912 2.56812C5.66018 2.49136 5.50116 2.45875 5.34323 2.47462C5.1853 2.49049 5.03595 2.55408 4.91506 2.65695C4.79417 2.75981 4.70748 2.89705 4.66653 3.05041C4.62558 3.20376 4.63232 3.36595 4.68584 3.51538L7.79131 12.2263C7.85972 12.3954 7.85972 12.5845 7.79131 12.7537L4.68584 21.4646C4.63232 21.614 4.62558 21.7762 4.66653 21.9296C4.70748 22.0829 4.79417 22.2202 4.91506 22.323C5.03594 22.4259 5.1853 22.4895 5.34323 22.5054C5.50116 22.5212 5.66018 22.4886 5.79912 22.4119L22.2933 13.1736C22.4154 13.106 22.5172 13.007 22.588 12.8868C22.6589 12.7666 22.6963 12.6295 22.6963 12.49C22.6963 12.3504 22.6589 12.2134 22.588 12.0932C22.5172 11.973 22.4154 11.874 22.2933 11.8064Z" stroke="#FD9840" stroke-width="2" stroke-linecap="round" stroke-linejoin="round"/>
<path d="M7.88867 12.4902L14.1387 12.4902" stroke="#FD9840" stroke-width="2" stroke-linecap="round" stroke-linejoin="round"/>
</svg>
