<svg width="20" height="23" viewBox="0 0 20 23" fill="none" xmlns="http://www.w3.org/2000/svg">
<path d="M12.4531 3.125C13.5132 3.40951 14.4799 3.96785 15.256 4.74399C16.0321 5.52013 16.5905 6.48676 16.875 7.54687" stroke="#828282" stroke-width="1.5" stroke-linecap="round" stroke-linejoin="round"/>
<path d="M11.8047 5.53906C12.4423 5.7084 13.0238 6.04327 13.4903 6.50974C13.9567 6.97622 14.2916 7.55772 14.4609 8.19531" stroke="#828282" stroke-width="1.5" stroke-linecap="round" stroke-linejoin="round"/>
<path d="M7.22656 14.2238C7.8697 15.5519 8.94366 16.6231 10.2734 17.2628C10.3715 17.3093 10.48 17.3294 10.5882 17.3212C10.6965 17.313 10.8007 17.2767 10.8906 17.216L12.8437 15.9113C12.93 15.8528 13.0298 15.817 13.1336 15.8075C13.2374 15.7979 13.342 15.8148 13.4375 15.8566L17.0938 17.4269C17.2187 17.4789 17.3231 17.5706 17.3909 17.6877C17.4586 17.8049 17.486 17.9411 17.4688 18.0753C17.3529 18.9798 16.9114 19.8111 16.2269 20.4136C15.5424 21.0161 14.6619 21.3486 13.75 21.3488C10.9321 21.3488 8.22956 20.2294 6.23699 18.2368C4.24442 16.2442 3.125 13.5417 3.125 10.7238C3.12521 9.8119 3.45767 8.93134 4.06018 8.24687C4.66269 7.5624 5.49395 7.12091 6.39844 7.00503C6.53269 6.98779 6.66888 7.01515 6.78605 7.08291C6.90322 7.15067 6.99487 7.25507 7.04687 7.38003L8.61719 11.0441C8.65802 11.1381 8.67511 11.2407 8.66693 11.3429C8.65876 11.4451 8.62558 11.5437 8.57031 11.63L7.26562 13.6144C7.20754 13.7042 7.17345 13.8073 7.16661 13.914C7.15977 14.0207 7.18041 14.1273 7.22656 14.2238V14.2238Z" stroke="#828282" stroke-width="1.5" stroke-linecap="round" stroke-linejoin="round"/>
</svg>
